<mxfile host="app.diagrams.net" agent="Mozilla/5.0 (Macintosh; Intel Mac OS X 10_15_7) AppleWebKit/537.36 (KHTML, like Gecko) Chrome/129.0.0.0 Safari/537.36" version="24.7.16">
  <diagram name="Page-1" id="13e1069c-82ec-6db2-03f1-153e76fe0fe0">
    <mxGraphModel dx="1927" dy="1363" grid="1" gridSize="10" guides="1" tooltips="1" connect="1" arrows="1" fold="1" page="1" pageScale="1" pageWidth="1100" pageHeight="850" background="none" math="0" shadow="0">
      <root>
        <mxCell id="0" />
        <mxCell id="1" parent="0" />
        <mxCell id="Utzet_RcOg0IqEUwT1VO-1" value="EventHandler" style="shape=process;whiteSpace=wrap;html=1;backgroundOutline=1;" vertex="1" parent="1">
          <mxGeometry x="240" y="-740" width="120" height="60" as="geometry" />
        </mxCell>
        <mxCell id="Utzet_RcOg0IqEUwT1VO-2" value="" style="endArrow=none;dashed=1;html=1;rounded=0;entryX=0.5;entryY=1;entryDx=0;entryDy=0;" edge="1" parent="1" target="Utzet_RcOg0IqEUwT1VO-1">
          <mxGeometry width="50" height="50" relative="1" as="geometry">
            <mxPoint x="300" as="sourcePoint" />
            <mxPoint x="165" y="-400" as="targetPoint" />
          </mxGeometry>
        </mxCell>
        <mxCell id="Utzet_RcOg0IqEUwT1VO-4" value="IrcServer" style="shape=process;whiteSpace=wrap;html=1;backgroundOutline=1;" vertex="1" parent="1">
          <mxGeometry x="-165" y="-740" width="120" height="60" as="geometry" />
        </mxCell>
        <mxCell id="Utzet_RcOg0IqEUwT1VO-5" value="" style="endArrow=none;dashed=1;html=1;rounded=0;entryX=0.5;entryY=1;entryDx=0;entryDy=0;" edge="1" parent="1">
          <mxGeometry width="50" height="50" relative="1" as="geometry">
            <mxPoint x="-107" y="-250" as="sourcePoint" />
            <mxPoint x="-105.5" y="-680" as="targetPoint" />
          </mxGeometry>
        </mxCell>
        <mxCell id="Utzet_RcOg0IqEUwT1VO-6" value="Checkを作成" style="rounded=0;whiteSpace=wrap;html=1;fontStyle=0" vertex="1" parent="1">
          <mxGeometry x="-155" y="-660" width="100" height="50" as="geometry" />
        </mxCell>
        <mxCell id="Utzet_RcOg0IqEUwT1VO-7" value="DeleteEventListenerを作成" style="rounded=0;whiteSpace=wrap;html=1;" vertex="1" parent="1">
          <mxGeometry x="-190" y="-590" width="170" height="50" as="geometry" />
        </mxCell>
        <mxCell id="Utzet_RcOg0IqEUwT1VO-9" value="run" style="rounded=0;whiteSpace=wrap;html=1;" vertex="1" parent="1">
          <mxGeometry x="-150" y="-505" width="85" height="50" as="geometry" />
        </mxCell>
        <mxCell id="Utzet_RcOg0IqEUwT1VO-20" style="edgeStyle=orthogonalEdgeStyle;rounded=0;orthogonalLoop=1;jettySize=auto;html=1;exitX=1;exitY=0.5;exitDx=0;exitDy=0;entryX=0;entryY=0.5;entryDx=0;entryDy=0;" edge="1" parent="1" source="Utzet_RcOg0IqEUwT1VO-15" target="Utzet_RcOg0IqEUwT1VO-19">
          <mxGeometry relative="1" as="geometry" />
        </mxCell>
        <mxCell id="Utzet_RcOg0IqEUwT1VO-15" value="HandlePollInEvent" style="rounded=0;whiteSpace=wrap;html=1;" vertex="1" parent="1">
          <mxGeometry x="240" y="-200" width="130" height="50" as="geometry" />
        </mxCell>
        <mxCell id="Utzet_RcOg0IqEUwT1VO-16" value="HandlePollOutEvent" style="rounded=0;whiteSpace=wrap;html=1;" vertex="1" parent="1">
          <mxGeometry x="240" y="-360" width="130" height="50" as="geometry" />
        </mxCell>
        <mxCell id="Utzet_RcOg0IqEUwT1VO-17" value="HandlePollHupEvent" style="rounded=0;whiteSpace=wrap;html=1;" vertex="1" parent="1">
          <mxGeometry x="240" y="-280" width="130" height="50" as="geometry" />
        </mxCell>
        <mxCell id="Utzet_RcOg0IqEUwT1VO-19" value="HandlePollInEvent" style="rounded=0;whiteSpace=wrap;html=1;" vertex="1" parent="1">
          <mxGeometry x="519" y="-740" width="130" height="50" as="geometry" />
        </mxCell>
        <mxCell id="Utzet_RcOg0IqEUwT1VO-21" value="" style="endArrow=none;dashed=1;html=1;rounded=0;entryX=0.5;entryY=1;entryDx=0;entryDy=0;" edge="1" parent="1" target="Utzet_RcOg0IqEUwT1VO-19">
          <mxGeometry width="50" height="50" relative="1" as="geometry">
            <mxPoint x="584" as="sourcePoint" />
            <mxPoint x="599" y="-450" as="targetPoint" />
          </mxGeometry>
        </mxCell>
        <mxCell id="Utzet_RcOg0IqEUwT1VO-3" value="Event作成" style="rounded=0;whiteSpace=wrap;html=1;" vertex="1" parent="1">
          <mxGeometry x="536.5" y="-480" width="100" height="50" as="geometry" />
        </mxCell>
        <mxCell id="Utzet_RcOg0IqEUwT1VO-22" value="Accept" style="rounded=0;whiteSpace=wrap;html=1;" vertex="1" parent="1">
          <mxGeometry x="534" y="-670" width="100" height="50" as="geometry" />
        </mxCell>
        <mxCell id="Utzet_RcOg0IqEUwT1VO-23" value="Revcive" style="rounded=0;whiteSpace=wrap;html=1;" vertex="1" parent="1">
          <mxGeometry x="536.5" y="-415" width="100" height="50" as="geometry" />
        </mxCell>
        <mxCell id="Utzet_RcOg0IqEUwT1VO-24" value="Parsing" style="rounded=0;whiteSpace=wrap;html=1;" vertex="1" parent="1">
          <mxGeometry x="691.5" y="-415" width="100" height="50" as="geometry" />
        </mxCell>
        <mxCell id="Utzet_RcOg0IqEUwT1VO-27" value="" style="endArrow=none;dashed=1;html=1;rounded=0;entryX=0.5;entryY=1;entryDx=0;entryDy=0;" edge="1" parent="1" target="Utzet_RcOg0IqEUwT1VO-24">
          <mxGeometry width="50" height="50" relative="1" as="geometry">
            <mxPoint x="741.5" y="-235" as="sourcePoint" />
            <mxPoint x="541.5" y="-345" as="targetPoint" />
          </mxGeometry>
        </mxCell>
        <mxCell id="Utzet_RcOg0IqEUwT1VO-29" value="Message" style="html=1;verticalAlign=bottom;startArrow=oval;startFill=1;endArrow=block;startSize=8;curved=0;rounded=0;" edge="1" parent="1">
          <mxGeometry width="60" relative="1" as="geometry">
            <mxPoint x="591.5" y="-315" as="sourcePoint" />
            <mxPoint x="741.5" y="-315" as="targetPoint" />
          </mxGeometry>
        </mxCell>
        <mxCell id="Utzet_RcOg0IqEUwT1VO-30" value="Command&amp;amp;Parameter" style="html=1;verticalAlign=bottom;endArrow=open;dashed=1;endSize=8;curved=0;rounded=0;" edge="1" parent="1">
          <mxGeometry relative="1" as="geometry">
            <mxPoint x="741.5" y="-255" as="sourcePoint" />
            <mxPoint x="591.5" y="-255" as="targetPoint" />
          </mxGeometry>
        </mxCell>
        <mxCell id="Utzet_RcOg0IqEUwT1VO-35" style="edgeStyle=orthogonalEdgeStyle;rounded=0;orthogonalLoop=1;jettySize=auto;html=1;entryX=0;entryY=0.5;entryDx=0;entryDy=0;exitX=1;exitY=0.5;exitDx=0;exitDy=0;" edge="1" parent="1" source="Utzet_RcOg0IqEUwT1VO-33" target="Utzet_RcOg0IqEUwT1VO-34">
          <mxGeometry relative="1" as="geometry">
            <Array as="points">
              <mxPoint x="810" y="-210" />
              <mxPoint x="810" y="-715" />
            </Array>
          </mxGeometry>
        </mxCell>
        <mxCell id="Utzet_RcOg0IqEUwT1VO-33" value="Exectute Command" style="rounded=0;whiteSpace=wrap;html=1;" vertex="1" parent="1">
          <mxGeometry x="519" y="-235" width="135" height="50" as="geometry" />
        </mxCell>
        <mxCell id="Utzet_RcOg0IqEUwT1VO-34" value="Exectute Command" style="rounded=0;whiteSpace=wrap;html=1;" vertex="1" parent="1">
          <mxGeometry x="850" y="-740" width="135" height="50" as="geometry" />
        </mxCell>
        <mxCell id="Utzet_RcOg0IqEUwT1VO-36" value="" style="endArrow=none;dashed=1;html=1;rounded=0;entryX=0.5;entryY=1;entryDx=0;entryDy=0;" edge="1" parent="1" target="Utzet_RcOg0IqEUwT1VO-34">
          <mxGeometry width="50" height="50" relative="1" as="geometry">
            <mxPoint x="918" y="-40" as="sourcePoint" />
            <mxPoint x="930" y="-680" as="targetPoint" />
          </mxGeometry>
        </mxCell>
        <mxCell id="Utzet_RcOg0IqEUwT1VO-37" value="Check" style="rounded=0;whiteSpace=wrap;html=1;fillColor=#f8cecc;strokeColor=#b85450;" vertex="1" parent="1">
          <mxGeometry x="867.5" y="-670" width="100" height="50" as="geometry" />
        </mxCell>
        <mxCell id="Utzet_RcOg0IqEUwT1VO-38" value="DeleteEventListener" style="rounded=0;whiteSpace=wrap;html=1;" vertex="1" parent="1">
          <mxGeometry x="832.5" y="-175" width="170" height="50" as="geometry" />
        </mxCell>
        <mxCell id="Utzet_RcOg0IqEUwT1VO-39" value="Check" style="rounded=0;whiteSpace=wrap;html=1;fillColor=#f8cecc;strokeColor=#b85450;" vertex="1" parent="1">
          <mxGeometry x="680" y="-670" width="100" height="50" as="geometry" />
        </mxCell>
        <mxCell id="Utzet_RcOg0IqEUwT1VO-40" value="" style="endArrow=none;dashed=1;html=1;rounded=0;entryX=0.5;entryY=1;entryDx=0;entryDy=0;" edge="1" parent="1">
          <mxGeometry width="50" height="50" relative="1" as="geometry">
            <mxPoint x="729.67" y="-490" as="sourcePoint" />
            <mxPoint x="730.17" y="-620" as="targetPoint" />
          </mxGeometry>
        </mxCell>
        <mxCell id="Utzet_RcOg0IqEUwT1VO-41" value="FD" style="html=1;verticalAlign=bottom;startArrow=oval;startFill=1;endArrow=block;startSize=8;curved=0;rounded=0;" edge="1" parent="1">
          <mxGeometry x="0.0667" width="60" relative="1" as="geometry">
            <mxPoint x="580" y="-590" as="sourcePoint" />
            <mxPoint x="730" y="-590" as="targetPoint" />
            <mxPoint as="offset" />
          </mxGeometry>
        </mxCell>
        <mxCell id="Utzet_RcOg0IqEUwT1VO-42" value="User" style="html=1;verticalAlign=bottom;endArrow=open;dashed=1;endSize=8;curved=0;rounded=0;" edge="1" parent="1">
          <mxGeometry relative="1" as="geometry">
            <mxPoint x="730" y="-505.67" as="sourcePoint" />
            <mxPoint x="580" y="-505.67" as="targetPoint" />
          </mxGeometry>
        </mxCell>
        <mxCell id="Utzet_RcOg0IqEUwT1VO-43" value="Add user to IrcServer" style="rounded=0;whiteSpace=wrap;html=1;" vertex="1" parent="1">
          <mxGeometry x="680" y="-570" width="100" height="50" as="geometry" />
        </mxCell>
        <mxCell id="Utzet_RcOg0IqEUwT1VO-45" value="" style="html=1;verticalAlign=bottom;startArrow=oval;startFill=1;endArrow=block;startSize=8;curved=0;rounded=0;" edge="1" parent="1">
          <mxGeometry width="60" relative="1" as="geometry">
            <mxPoint x="-100" y="-405" as="sourcePoint" />
            <mxPoint x="300" y="-405" as="targetPoint" />
          </mxGeometry>
        </mxCell>
        <mxCell id="Utzet_RcOg0IqEUwT1VO-46" value="Check" style="rounded=0;whiteSpace=wrap;html=1;fillColor=#f8cecc;strokeColor=#b85450;" vertex="1" parent="1">
          <mxGeometry x="-40" y="-430" width="100" height="50" as="geometry" />
        </mxCell>
        <mxCell id="Utzet_RcOg0IqEUwT1VO-47" value="DeleteEventListener" style="rounded=0;whiteSpace=wrap;html=1;" vertex="1" parent="1">
          <mxGeometry x="80" y="-430" width="170" height="50" as="geometry" />
        </mxCell>
        <mxCell id="Utzet_RcOg0IqEUwT1VO-48" value="User" style="rounded=0;whiteSpace=wrap;html=1;" vertex="1" parent="1">
          <mxGeometry x="867.5" y="-260" width="100" height="50" as="geometry" />
        </mxCell>
        <mxCell id="Utzet_RcOg0IqEUwT1VO-49" value="Check" style="rounded=0;whiteSpace=wrap;html=1;fillColor=#f8cecc;strokeColor=#b85450;" vertex="1" parent="1">
          <mxGeometry x="1090" y="-740" width="100" height="50" as="geometry" />
        </mxCell>
        <mxCell id="Utzet_RcOg0IqEUwT1VO-50" value="" style="endArrow=none;dashed=1;html=1;rounded=0;entryX=0.5;entryY=1;entryDx=0;entryDy=0;" edge="1" parent="1">
          <mxGeometry width="50" height="50" relative="1" as="geometry">
            <mxPoint x="1140" y="-220" as="sourcePoint" />
            <mxPoint x="1139.67" y="-690" as="targetPoint" />
          </mxGeometry>
        </mxCell>
        <mxCell id="Utzet_RcOg0IqEUwT1VO-51" value="Check Command" style="rounded=0;whiteSpace=wrap;html=1;" vertex="1" parent="1">
          <mxGeometry x="1090" y="-670" width="100" height="50" as="geometry" />
        </mxCell>
        <mxCell id="Utzet_RcOg0IqEUwT1VO-52" value="Check Parameter" style="rounded=0;whiteSpace=wrap;html=1;" vertex="1" parent="1">
          <mxGeometry x="1090" y="-600" width="100" height="50" as="geometry" />
        </mxCell>
        <mxCell id="Utzet_RcOg0IqEUwT1VO-53" value="Add Check Info to Event" style="rounded=0;whiteSpace=wrap;html=1;" vertex="1" parent="1">
          <mxGeometry x="1090" y="-450" width="100" height="50" as="geometry" />
        </mxCell>
        <mxCell id="Utzet_RcOg0IqEUwT1VO-54" value="Check Channel" style="rounded=0;whiteSpace=wrap;html=1;" vertex="1" parent="1">
          <mxGeometry x="1090" y="-530" width="100" height="50" as="geometry" />
        </mxCell>
        <mxCell id="Utzet_RcOg0IqEUwT1VO-56" value="" style="html=1;verticalAlign=bottom;endArrow=open;dashed=1;endSize=8;curved=0;rounded=0;" edge="1" parent="1">
          <mxGeometry relative="1" as="geometry">
            <mxPoint x="1140" y="-335" as="sourcePoint" />
            <mxPoint x="920" y="-335.33" as="targetPoint" />
          </mxGeometry>
        </mxCell>
        <mxCell id="Utzet_RcOg0IqEUwT1VO-57" value="Event" style="rounded=0;whiteSpace=wrap;html=1;" vertex="1" parent="1">
          <mxGeometry x="980" y="-390" width="100" height="50" as="geometry" />
        </mxCell>
        <mxCell id="Utzet_RcOg0IqEUwT1VO-58" value="DB" style="rounded=0;whiteSpace=wrap;html=1;" vertex="1" parent="1">
          <mxGeometry x="950" y="-830" width="100" height="50" as="geometry" />
        </mxCell>
      </root>
    </mxGraphModel>
  </diagram>
</mxfile>
